<?xml version="1.0" encoding="UTF-8" standalone="no"?>
<svg
   xmlns:svg="http://www.w3.org/2000/svg"
   xmlns="http://www.w3.org/2000/svg"
   version="1.1"
   id="svg2"
   width="602"
   height="273">
  <path
     style="fill:#acc676"
     d="M 101.6,45.5 25.7,0.4 v 31 l 42.5,23.7 -42.5,26 v 28.5 L 101.6,65 Z"
     id="path860" />
  <path
     style="fill:#acc676"
     d="M 0.6,149.1 128.3,73.7 v 51.7 l -71.7,39.9 71.5,43.6 v 51.7 L 0.6,180.9 Z"
     id="path858" />
  <g
     style="font-family:'Gotham Black';fill:#f06a50"
     aria-label="IIPC"
     id="text853">
    <path
       d="m 162.1,197.5 h 48.17 V 24.6 H 162.1 Z"
       id="path2522" />
    <path
       d="m 242.87,197.5 h 48.17 V 24.6 h -48.17 z"
       id="path2524" />
    <path
       d="m 322.65,197.5 h 47.92 v -49.4 h 23.71 c 42.98,0 74.35,-21.49 74.35,-62.24 v -0.5 c 0,-38.28 -28.16,-60.76 -71.88,-60.76 h -74.1 z m 47.92,-86.94 v -45.7 h 22.48 c 17.29,0 27.66,7.91 27.66,22.73 v 0.49 c 0,13.58 -10.37,22.48 -27.42,22.48 z"
       id="path2526" />
    <path
       d="m 521.22,200.96 c 38.29,0 60.27,-16.55 76.57,-39.03 l -36.06,-25.69 c -10.37,12.6 -21,21 -39.03,21 -24.2,0 -41.25,-20.25 -41.25,-46.19 v -0.49 c 0,-25.2 17.05,-45.7 41.25,-45.7 16.55,0 27.91,7.91 37.79,20.26 L 596.56,57.2 C 581.24,35.96 558.52,21.14 523.2,21.14 c -52.37,0 -91.15,39.52 -91.15,89.91 v 0.49 c 0,51.63 39.77,89.42 89.17,89.42 z"
       id="path2528" />
    <path
       d="m 456.74,48.48 c -15.48,16.07 -24.68,38.03 -24.68,62.57 v 0.5 c 0,9.84 1.44,19.17 4.13,27.84 19.97,-9.82 32.44,-27.85 32.44,-53.53 v -0.5 c 0,-14.78 -4.22,-27.2 -11.89,-36.88 z"
       style="fill:#ea372f"
       id="path957" />
  </g>
  <g
     style="font-family:'Museo Slab';fill:#3daab9"
     aria-label="netpreserve.org"
     id="text849">
    <path
       d="m 159.48,235.12 v -4.31 h 6.59 q 3.69,0 3.69,3.21 v 1.53 q 0,0.42 -0.05,0.84 -0.03,0.4 -0.09,0.62 l -0.05,0.2 h 0.14 q 0.19,-0.57 0.67,-1.33 0.48,-0.79 1.44,-1.83 0.99,-1.04 2.2,-1.89 1.24,-0.87 3.1,-1.46 1.86,-0.59 3.94,-0.59 4.99,0 7.33,2.79 2.36,2.76 2.36,8.39 v 14.37 h 4.62 V 260 h -10.22 v -17.41 q 0,-1.69 -0.23,-2.9 -0.2,-1.22 -0.76,-2.29 -0.54,-1.07 -1.66,-1.6 -1.13,-0.56 -2.82,-0.56 -2.85,0 -5.13,1.6 -2.25,1.58 -3.43,4.14 -1.19,2.54 -1.19,5.47 v 9.21 h 4.62 V 260 h -14.79 v -4.34 h 4.57 v -19.27 q 0,-1.27 -1.27,-1.27 z"
       id="path2295" />
    <path
       d="m 199.12,245.41 q 0,-6.88 4.11,-11.08 4.15,-4.22 10.48,-4.22 4.03,0 6.93,1.88 2.94,1.87 4.31,4.91 1.41,3.04 1.41,6.9 l -0.19,2.11 h -21.33 q 0.25,4.65 3.13,7.3 2.87,2.65 6.95,2.65 1.41,0 2.82,-0.34 1.44,-0.34 2.45,-0.82 1.02,-0.48 1.81,-0.96 0.81,-0.5 1.24,-0.84 l 0.39,-0.34 2.31,4.09 q -0.17,0.17 -0.51,0.45 -0.33,0.25 -1.46,0.96 -1.13,0.7 -2.37,1.24 -1.24,0.53 -3.15,0.95 -1.92,0.45 -3.86,0.45 -4.51,0 -8.06,-2 -3.55,-2.03 -5.49,-5.49 -1.92,-3.49 -1.92,-7.8 z m 5.95,-3.07 h 15.52 q -0.11,-3.7 -2.12,-5.72 -1.97,-2.06 -4.87,-2.06 -3.27,0 -5.61,2.08 -2.33,2.06 -2.92,5.7 z"
       id="path2297" />
    <path
       d="m 229.8,235.12 v -4.31 h 5.02 v -8.03 h 5.49 v 8.03 h 6.96 v 4.31 h -6.96 v 13.7 q 0,1.69 0.45,2.98 0.45,1.27 1.1,1.94 0.65,0.68 1.55,1.1 0.9,0.43 1.6,0.54 0.74,0.11 1.53,0.11 l 1.32,-0.05 v 4.67 q -0.82,0.11 -2.03,0.11 -0.9,0 -1.8,-0.08 -0.87,-0.08 -2.03,-0.36 -1.13,-0.32 -2.11,-0.77 -0.99,-0.47 -1.98,-1.29 -0.95,-0.85 -1.66,-1.95 -0.67,-1.12 -1.12,-2.78 -0.43,-1.67 -0.43,-3.67 v -14.2 z"
       id="path2299" />
    <path
       d="m 251.18,235.12 v -4.31 h 6.48 q 3.58,0 3.58,2.88 v 0.22 l -0.11,1.69 h 0.11 q 0.12,-0.22 0.31,-0.59 0.2,-0.37 1.02,-1.3 0.81,-0.95 1.83,-1.69 1.01,-0.73 2.79,-1.32 1.8,-0.59 3.86,-0.59 5.86,0 9.32,4.22 3.5,4.23 3.5,11.08 0,6.87 -3.72,11.1 -3.72,4.19 -9.5,4.19 -1.8,0 -3.41,-0.5 -1.57,-0.51 -2.56,-1.24 -0.99,-0.74 -1.75,-1.47 -0.73,-0.76 -1.04,-1.27 l -0.31,-0.5 h -0.11 q 0.17,1.07 0.17,2.56 v 8.93 h 4.62 v 4.34 h -14.77 v -4.34 h 4.54 v -30.82 q 0,-1.27 -1.27,-1.27 z m 10.35,10.4 q 0,2.67 0.9,4.99 0.9,2.31 2.81,3.83 1.95,1.52 4.54,1.52 3.61,0 6,-2.79 2.42,-2.79 2.42,-7.61 0,-4.73 -2.31,-7.58 -2.31,-2.87 -6,-2.87 -3.55,0 -5.97,2.65 -2.39,2.62 -2.39,7.86 z"
       id="path2301" />
    <path
       d="m 288.63,235.12 v -4.31 h 6.56 q 1.92,0 2.85,0.85 0.93,0.81 0.93,2.56 v 1.83 l -0.14,2.03 h 0.14 q 1.04,-3.35 3.49,-5.49 2.45,-2.14 5.72,-2.14 l 1.44,0.14 v 5.52 q -0.68,-0.17 -1.61,-0.17 -2.22,0 -4,1.07 -1.75,1.04 -2.79,2.82 -1.04,1.74 -1.58,3.83 -0.5,2.06 -0.5,4.28 v 7.72 h 4.31 V 260 h -14.32 v -4.34 h 4.4 v -19.27 q 0,-1.27 -1.27,-1.27 z"
       id="path2303" />
    <path
       d="m 313.03,245.41 q 0,-6.88 4.11,-11.08 4.14,-4.22 10.48,-4.22 4.03,0 6.93,1.88 2.93,1.87 4.31,4.91 1.41,3.04 1.41,6.9 l -0.2,2.11 h -21.32 q 0.25,4.65 3.12,7.3 2.88,2.65 6.96,2.65 1.41,0 2.82,-0.34 1.44,-0.34 2.45,-0.82 1.02,-0.48 1.8,-0.96 0.82,-0.5 1.24,-0.84 l 0.4,-0.34 2.31,4.09 q -0.17,0.17 -0.51,0.45 -0.34,0.25 -1.46,0.96 -1.13,0.7 -2.37,1.24 -1.24,0.53 -3.16,0.95 -1.91,0.45 -3.86,0.45 -4.5,0 -8.05,-2 -3.55,-2.03 -5.5,-5.49 -1.91,-3.49 -1.91,-7.8 z m 5.94,-3.07 h 15.52 q -0.11,-3.7 -2.11,-5.72 -1.97,-2.06 -4.87,-2.06 -3.27,0 -5.61,2.08 -2.34,2.06 -2.93,5.7 z"
       id="path2305" />
    <path
       d="m 344.98,253.72 v -3.13 h 4.9 v 1.92 q 0,1.74 2,2.7 2.03,0.93 4.7,0.93 2.57,0 4.2,-0.99 1.66,-0.98 1.66,-2.76 0,-0.79 -0.33,-1.43 -0.34,-0.68 -0.91,-1.16 -0.53,-0.48 -1.43,-0.93 -0.9,-0.45 -1.78,-0.76 -0.84,-0.34 -2.08,-0.79 -0.48,-0.17 -0.74,-0.25 -1.63,-0.59 -2.67,-1.02 -1.02,-0.45 -2.37,-1.26 -1.35,-0.82 -2.14,-1.67 -0.79,-0.84 -1.35,-2.11 -0.56,-1.3 -0.56,-2.82 0,-2.08 0.95,-3.69 0.96,-1.6 2.54,-2.53 1.6,-0.93 3.44,-1.38 1.86,-0.48 3.86,-0.48 1.63,0 3.29,0.34 1.69,0.33 3.24,0.98 1.58,0.65 2.56,1.86 0.99,1.18 0.99,2.71 v 3.52 h -4.9 v -1.92 q 0,-1.29 -1.49,-2.14 -1.5,-0.84 -3.64,-0.84 -2.2,0 -3.69,0.93 -1.49,0.9 -1.49,2.59 0,0.79 0.39,1.49 0.4,0.68 0.93,1.16 0.54,0.45 1.55,0.95 1.04,0.51 1.78,0.79 0.73,0.28 2.08,0.73 1.18,0.4 1.97,0.68 0.79,0.28 1.89,0.79 1.13,0.48 1.83,0.93 0.73,0.45 1.55,1.16 0.82,0.67 1.3,1.4 0.48,0.74 0.79,1.75 0.31,0.99 0.31,2.11 0,4.06 -3.3,6.34 -3.27,2.28 -8.42,2.28 -2.76,0 -5.33,-0.76 -2.53,-0.76 -4.31,-2.39 -1.77,-1.64 -1.77,-3.83 z"
       id="path2307" />
    <path
       d="m 372.78,245.41 q 0,-6.88 4.12,-11.08 4.14,-4.22 10.48,-4.22 4.03,0 6.93,1.88 2.93,1.87 4.31,4.91 1.41,3.04 1.41,6.9 l -0.2,2.11 H 378.5 q 0.26,4.65 3.13,7.3 2.87,2.65 6.96,2.65 1.41,0 2.82,-0.34 1.43,-0.34 2.45,-0.82 1.01,-0.48 1.8,-0.96 0.82,-0.5 1.24,-0.84 l 0.4,-0.34 2.31,4.09 q -0.17,0.17 -0.51,0.45 -0.34,0.25 -1.47,0.96 -1.12,0.7 -2.36,1.24 -1.24,0.53 -3.16,0.95 -1.92,0.45 -3.86,0.45 -4.51,0 -8.06,-2 -3.55,-2.03 -5.49,-5.49 -1.92,-3.49 -1.92,-7.8 z m 5.95,-3.07 h 15.52 q -0.11,-3.7 -2.11,-5.72 -1.97,-2.06 -4.88,-2.06 -3.26,0 -5.6,2.08 -2.34,2.06 -2.93,5.7 z"
       id="path2309" />
    <path
       d="m 404.79,235.12 v -4.31 h 6.56 q 1.92,0 2.85,0.85 0.93,0.81 0.93,2.56 v 1.83 l -0.14,2.03 h 0.14 q 1.04,-3.35 3.49,-5.49 2.45,-2.14 5.72,-2.14 l 1.44,0.14 v 5.52 q -0.68,-0.17 -1.61,-0.17 -2.22,0 -4,1.07 -1.75,1.04 -2.79,2.82 -1.04,1.74 -1.57,3.83 -0.51,2.06 -0.51,4.28 v 7.72 h 4.31 V 260 H 405.3 v -4.34 h 4.39 v -19.27 q 0,-1.27 -1.27,-1.27 z"
       id="path2311" />
    <path
       d="m 429.33,235.12 v -4.31 h 13.1 v 4.31 h -3.75 l 6.17,17.02 q 0.2,0.56 0.37,1.27 0.17,0.67 0.22,1.07 l 0.06,0.39 h 0.17 q 0.2,-1.46 0.65,-2.73 l 6.22,-17.02 h -3.74 v -4.31 h 13.01 v 4.31 h -3.63 L 448.74,260 h -6.31 l -9.38,-24.88 z"
       id="path2313" />
    <path
       d="m 464.46,245.41 q 0,-6.88 4.11,-11.08 4.15,-4.22 10.49,-4.22 4.02,0 6.93,1.88 2.93,1.87 4.31,4.91 1.4,3.04 1.4,6.9 l -0.19,2.11 h -21.33 q 0.25,4.65 3.13,7.3 2.87,2.65 6.96,2.65 1.4,0 2.81,-0.34 1.44,-0.34 2.46,-0.82 1.01,-0.48 1.8,-0.96 0.81,-0.5 1.24,-0.84 l 0.39,-0.34 2.31,4.09 q -0.17,0.17 -0.5,0.45 -0.34,0.25 -1.47,0.96 -1.13,0.7 -2.37,1.24 -1.24,0.53 -3.15,0.95 -1.92,0.45 -3.86,0.45 -4.51,0 -8.06,-2 -3.55,-2.03 -5.49,-5.49 -1.92,-3.49 -1.92,-7.8 z m 5.94,-3.07 h 15.53 q -0.11,-3.7 -2.11,-5.72 -1.98,-2.06 -4.88,-2.06 -3.27,0 -5.6,2.08 -2.34,2.06 -2.94,5.7 z"
       id="path2315" />
    <path
       d="m 498.49,260 v -6.06 h 6.01 V 260 Z"
       id="path2317" />
    <path
       d="m 509.17,245.35 q 0,-3.24 1.24,-6.09 1.24,-2.84 3.35,-4.84 2.15,-2 5.02,-3.16 2.9,-1.15 6.14,-1.15 3.24,0 6.12,1.15 2.9,1.16 5.01,3.16 2.14,2 3.38,4.84 1.24,2.85 1.24,6.09 0,4.34 -2.11,7.89 -2.11,3.52 -5.72,5.49 -3.61,1.97 -7.92,1.97 -4.31,0 -7.91,-1.97 -3.61,-1.97 -5.72,-5.49 -2.12,-3.55 -2.12,-7.89 z m 5.72,0 q 0,4.54 2.9,7.52 2.91,2.99 7.13,2.99 4.17,0 7.1,-2.99 2.93,-2.98 2.93,-7.52 0,-4.48 -2.93,-7.44 -2.93,-2.96 -7.1,-2.96 -4.22,0 -7.13,2.96 -2.9,2.96 -2.9,7.44 z"
       id="path2319" />
    <path
       d="m 545.12,235.12 v -4.31 h 6.57 q 1.91,0 2.84,0.85 0.93,0.81 0.93,2.56 v 1.83 l -0.14,2.03 h 0.14 q 1.05,-3.35 3.5,-5.49 2.45,-2.14 5.71,-2.14 l 1.44,0.14 v 5.52 q -0.67,-0.17 -1.6,-0.17 -2.23,0 -4,1.07 -1.75,1.04 -2.79,2.82 -1.05,1.74 -1.58,3.83 -0.51,2.06 -0.51,4.28 v 7.72 h 4.31 V 260 h -14.31 v -4.34 h 4.4 v -19.27 q 0,-1.27 -1.27,-1.27 z"
       id="path2321" />
    <path
       d="m 569.63,244.7 q 0,-4.2 1.47,-7.46 1.49,-3.3 4.42,-5.22 2.96,-1.91 6.93,-1.91 3.1,0 5.72,1.21 2.62,1.21 3.75,3.58 h 0.11 q -0.11,-0.4 -0.11,-1.16 0,-1.43 0.79,-2.17 0.79,-0.76 2.53,-0.76 h 6.26 v 4.31 h -3.24 q -1.27,0 -1.27,1.16 v 22.51 q 0,3.46 -1.24,6.11 -1.24,2.65 -3.38,4.17 -2.11,1.55 -4.68,2.28 -2.53,0.77 -5.41,0.77 -5.15,0 -10,-2.43 l 1.86,-4.25 q 0.4,0.22 1.1,0.53 0.73,0.34 2.85,0.88 2.11,0.53 4.05,0.53 4.12,0 6.68,-2.03 2.56,-2.02 2.56,-6.28 v -2.31 l 0.17,-1.83 h -0.11 q -2.82,4.73 -8.76,4.73 -3.95,0 -6.96,-1.97 -2.99,-2 -4.54,-5.38 -1.55,-3.38 -1.55,-7.61 z m 5.72,-0.11 q 0,4.59 2.26,7.41 2.28,2.82 6.17,2.82 3.38,0 5.55,-2.37 2.17,-2.39 2.17,-7.69 0,-9.81 -8.26,-9.81 -3.75,0 -5.83,2.6 -2.06,2.56 -2.06,7.04 z"
       id="path2323" />
  </g>
  <path
     style="fill:none;stroke:#cdcccb;stroke-width:4"
     d="M 654,-37 V 310"
     id="path867" />
  <text
     xml:space="preserve"
     style="font-weight:bold;font-size:48.5px;line-height:1.33;font-family:'Gotham Black', sans-serif;fill:#abc677"
     x="713"
     y="67.8"
     id="text16"><tspan
       id="tspan14"
       x="713"
       y="67.8">INTERNATIONAL</tspan><tspan
       x="713"
       y="133.3"
       id="tspan841">INTERNET</tspan><tspan
       x="713"
       y="198.8"
       id="tspan843">PRESERVATION</tspan><tspan
       x="713"
       y="264.2"
       id="tspan845">CONSORTIUM</tspan></text>
</svg>
